<svg width="15" height="16" viewBox="0 0 15 16" fill="none" xmlns="http://www.w3.org/2000/svg">
<g id="IONIcon/H/home/default" clip-path="url(#clip0_1502_429)">
<path id="Vector" d="M7.66276 3.4676C7.61914 3.42588 7.5611 3.40259 7.50074 3.40259C7.44038 3.40259 7.38235 3.42588 7.33873 3.4676L1.94518 8.62004C1.92227 8.64195 1.90405 8.66828 1.89161 8.69744C1.87917 8.72659 1.87278 8.75797 1.87282 8.78967L1.87194 13.6254C1.87194 13.874 1.97071 14.1125 2.14652 14.2883C2.32234 14.4641 2.5608 14.5629 2.80944 14.5629H5.62487C5.74919 14.5629 5.86841 14.5135 5.95632 14.4256C6.04423 14.3377 6.09362 14.2185 6.09362 14.0942V10.1098C6.09362 10.0476 6.11831 9.98801 6.16226 9.94406C6.20622 9.9001 6.26583 9.87541 6.32799 9.87541H8.67174C8.7339 9.87541 8.79351 9.9001 8.83747 9.94406C8.88142 9.98801 8.90611 10.0476 8.90611 10.1098V14.0942C8.90611 14.2185 8.9555 14.3377 9.04341 14.4256C9.13132 14.5135 9.25054 14.5629 9.37486 14.5629H12.1891C12.4378 14.5629 12.6762 14.4641 12.852 14.2883C13.0278 14.1125 13.1266 13.874 13.1266 13.6254V8.78967C13.1267 8.75797 13.1203 8.72659 13.1078 8.69744C13.0954 8.66828 13.0772 8.64195 13.0543 8.62004L7.66276 3.4676Z" fill="white"/>
<path id="Vector_2" d="M14.3823 7.65375L12.1909 5.55726V2.37592C12.1909 2.2516 12.1415 2.13237 12.0536 2.04446C11.9657 1.95655 11.8465 1.90717 11.7222 1.90717H10.3159C10.1916 1.90717 10.0724 1.95655 9.98448 2.04446C9.89657 2.13237 9.84718 2.2516 9.84718 2.37592V3.31342L8.15031 1.69095C7.99152 1.53041 7.75539 1.43842 7.50021 1.43842C7.24592 1.43842 7.01037 1.53041 6.85158 1.69125L0.620137 7.65316C0.437911 7.82894 0.415059 8.1181 0.580879 8.30853C0.622519 8.3566 0.673504 8.39569 0.730732 8.42343C0.78796 8.45116 0.850233 8.46697 0.913762 8.46987C0.977291 8.47278 1.04075 8.46272 1.10027 8.44033C1.15979 8.41793 1.21413 8.38365 1.25998 8.33959L7.33908 2.5306C7.3827 2.48888 7.44073 2.46559 7.50109 2.46559C7.56145 2.46559 7.61949 2.48888 7.6631 2.5306L13.7428 8.33959C13.8323 8.42547 13.9523 8.47234 14.0764 8.46992C14.2004 8.46751 14.3185 8.416 14.4046 8.3267C14.5845 8.14037 14.5695 7.83275 14.3823 7.65375Z" fill="white"/>
</g>
<defs>
<clipPath id="clip0_1502_429">
<rect width="15" height="15" fill="white" transform="translate(-0.000143051 0.500061)"/>
</clipPath>
</defs>
</svg>
